<mxfile host="app.diagrams.net" modified="2021-01-28T17:46:18.685Z" agent="5.0 (Windows)" etag="Hyh82I1aXTujBoaJR6VF" version="14.2.7" type="github">
  <diagram id="o-iGnY0mDEb7yioBF5pD" name="Page-1">
    <mxGraphModel dx="1038" dy="547" grid="1" gridSize="10" guides="1" tooltips="1" connect="1" arrows="1" fold="1" page="1" pageScale="1" pageWidth="1169" pageHeight="827" math="0" shadow="0">
      <root>
        <mxCell id="0" />
        <mxCell id="1" parent="0" />
        <mxCell id="jialteLq5rZHsZwc3br7-1" value="Sharing of scientific information" style="swimlane;" vertex="1" parent="1">
          <mxGeometry x="10" y="10" width="1150" height="810" as="geometry" />
        </mxCell>
        <mxCell id="jialteLq5rZHsZwc3br7-2" value="Start" style="rounded=1;whiteSpace=wrap;html=1;" vertex="1" parent="jialteLq5rZHsZwc3br7-1">
          <mxGeometry x="190" y="50" width="100" height="60" as="geometry" />
        </mxCell>
        <mxCell id="jialteLq5rZHsZwc3br7-5" value="PI, RS, KM, Corporate Affairs and Public Relations identifies topic or area of research for information dissemination using relevant platforms/pathways (podocast, colloquia, dialogues e,g policy, scientific conference, webinars, seminars, workshops)" style="rounded=0;whiteSpace=wrap;html=1;" vertex="1" parent="jialteLq5rZHsZwc3br7-1">
          <mxGeometry x="105" y="170" width="270" height="100" as="geometry" />
        </mxCell>
        <mxCell id="jialteLq5rZHsZwc3br7-4" value="" style="edgeStyle=orthogonalEdgeStyle;rounded=0;orthogonalLoop=1;jettySize=auto;html=1;" edge="1" parent="jialteLq5rZHsZwc3br7-1" source="jialteLq5rZHsZwc3br7-2" target="jialteLq5rZHsZwc3br7-5">
          <mxGeometry relative="1" as="geometry">
            <mxPoint x="240" y="190" as="targetPoint" />
          </mxGeometry>
        </mxCell>
        <mxCell id="jialteLq5rZHsZwc3br7-6" value="PI, RS, KM, Corporate Affairs and Public Relations develops and packages the content for sharing using selected platforms" style="whiteSpace=wrap;html=1;rounded=0;" vertex="1" parent="jialteLq5rZHsZwc3br7-1">
          <mxGeometry x="145" y="350" width="190" height="80" as="geometry" />
        </mxCell>
        <mxCell id="jialteLq5rZHsZwc3br7-7" value="" style="edgeStyle=orthogonalEdgeStyle;rounded=0;orthogonalLoop=1;jettySize=auto;html=1;" edge="1" parent="jialteLq5rZHsZwc3br7-1" source="jialteLq5rZHsZwc3br7-5" target="jialteLq5rZHsZwc3br7-6">
          <mxGeometry relative="1" as="geometry" />
        </mxCell>
      </root>
    </mxGraphModel>
  </diagram>
</mxfile>
